HIERARCHY
ROOT hip
{
  OFFSET 0 0 0
  CHANNELS 6 Xposition Yposition Zposition Zrotation Yrotation Xrotation
  JOINT abdomen
  {
    OFFSET 0 20.6881 -0.73152
    CHANNELS 3 Zrotation Xrotation Yrotation
    JOINT chest
    {
      OFFSET 0 11.7043 -0.48768
      CHANNELS 3 Zrotation Xrotation Yrotation
      JOINT neck
      {
        OFFSET 0 22.1894 -2.19456
        CHANNELS 3 Zrotation Xrotation Yrotation
        JOINT head
        {
          OFFSET -0.24384 7.07133 1.2192
          CHANNELS 3 Zrotation Xrotation Yrotation
          JOINT leftEye
          {
            OFFSET 4.14528 8.04674 8.04672
            CHANNELS 3 Zrotation Xrotation Yrotation
            End Site
            {
              OFFSET 1 0 0
            }
          }
          JOINT rightEye
          {
            OFFSET -3.6576 8.04674 8.04672
            CHANNELS 3 Zrotation Xrotation Yrotation
            End Site
            {
              OFFSET 1 0 0
            }
          }
        }
      }
      JOINT rCollar
      {
        OFFSET -2.68224 19.2634 -4.8768
        CHANNELS 3 Zrotation Xrotation Yrotation
        JOINT rShldr
        {
          OFFSET -8.77824 -1.95073 1.46304
          CHANNELS 3 Zrotation Xrotation Yrotation
          JOINT rForeArm
          {
            OFFSET -28.1742 -1.7115 0.48768
            CHANNELS 3 Zrotation Xrotation Yrotation
            JOINT rHand
            {
              OFFSET -22.5879 0.773209 7.07136
              CHANNELS 3 Zrotation Xrotation Yrotation
              JOINT rThumb1
              {
                OFFSET -1.2192 -0.487915 3.41376
                CHANNELS 3 Zrotation Xrotation Yrotation
                JOINT rThumb2
                {
                  OFFSET -3.37035 -0.52449 3.41376
                  CHANNELS 3 Zrotation Xrotation Yrotation
                  End Site
                  {
                    OFFSET -1.78271 -1.18214 1.43049
                  }
                }
              }
              JOINT rIndex1
              {
                OFFSET -7.75947 0.938293 5.60832
                CHANNELS 3 Zrotation Xrotation Yrotation
                JOINT rIndex2
                {
                  OFFSET -2.54057 -0.884171 1.56538
                  CHANNELS 3 Zrotation Xrotation Yrotation
                  End Site
                  {
                    OFFSET -1.62519 -0.234802 1.16502
                  }
                }
              }
              JOINT rMid1
              {
                OFFSET -8.24714 1.18213 3.41376
                CHANNELS 3 Zrotation Xrotation Yrotation
                JOINT rMid2
                {
                  OFFSET -3.10165 -0.590103 1.0647
                  CHANNELS 3 Zrotation Xrotation Yrotation
                  End Site
                  {
                    OFFSET -2.48547 -0.328903 0.83742
                  }
                }
              }
              JOINT rRing1
              {
                OFFSET -8.82822 0.546677 1.51678
                CHANNELS 3 Zrotation Xrotation Yrotation
                JOINT rRing2
                {
                  OFFSET -2.60934 -0.819778 -0.0198488
                  CHANNELS 3 Zrotation Xrotation Yrotation
                  End Site
                  {
                    OFFSET -2.33842 -0.294052 0.168128
                  }
                }
              }
              JOINT rPinky1
              {
                OFFSET -8.27202 -0.0477905 -0.4584
                CHANNELS 3 Zrotation Xrotation Yrotation
                JOINT rPinky2
                {
                  OFFSET -1.82734 -0.647385 -0.700984
                  CHANNELS 3 Zrotation Xrotation Yrotation
                  End Site
                  {
                    OFFSET -1.69225 -0.51767 -0.607171
                  }
                }
              }
            }
          }
        }
      }
      JOINT lCollar
      {
        OFFSET 2.68224 19.2634 -4.8768
        CHANNELS 3 Zrotation Xrotation Yrotation
        JOINT lShldr
        {
          OFFSET 8.77824 -1.95073 1.46304
          CHANNELS 3 Zrotation Xrotation Yrotation
          JOINT lForeArm
          {
            OFFSET 28.1742 -1.7115 0.48768
            CHANNELS 3 Zrotation Xrotation Yrotation
            JOINT lHand
            {
              OFFSET 22.5879 0.773209 7.07136
              CHANNELS 3 Zrotation Xrotation Yrotation
              JOINT lThumb1
              {
                OFFSET 1.2192 -0.487915 3.41376
                CHANNELS 3 Zrotation Xrotation Yrotation
                JOINT lThumb2
                {
                  OFFSET 3.37035 -0.52449 3.41376
                  CHANNELS 3 Zrotation Xrotation Yrotation
                  End Site
                  {
                    OFFSET 1.78271 -1.18214 1.43049
                  }
                }
              }
              JOINT lIndex1
              {
                OFFSET 7.75947 0.938293 5.60832
                CHANNELS 3 Zrotation Xrotation Yrotation
                JOINT lIndex2
                {
                  OFFSET 2.54057 -0.884171 1.56538
                  CHANNELS 3 Zrotation Xrotation Yrotation
                  End Site
                  {
                    OFFSET 1.62519 -0.234802 1.16502
                  }
                }
              }
              JOINT lMid1
              {
                OFFSET 8.24714 1.18213 3.41376
                CHANNELS 3 Zrotation Xrotation Yrotation
                JOINT lMid2
                {
                  OFFSET 3.10165 -0.590103 1.0647
                  CHANNELS 3 Zrotation Xrotation Yrotation
                  End Site
                  {
                    OFFSET 2.48547 -0.328903 0.83742
                  }
                }
              }
              JOINT lRing1
              {
                OFFSET 8.82822 0.546677 1.51678
                CHANNELS 3 Zrotation Xrotation Yrotation
                JOINT lRing2
                {
                  OFFSET 2.60934 -0.819778 -0.0198488
                  CHANNELS 3 Zrotation Xrotation Yrotation
                  End Site
                  {
                    OFFSET 2.33842 -0.294052 0.168128
                  }
                }
              }
              JOINT lPinky1
              {
                OFFSET 8.27202 -0.0477905 -0.4584
                CHANNELS 3 Zrotation Xrotation Yrotation
                JOINT lPinky2
                {
                  OFFSET 1.82734 -0.647385 -0.700984
                  CHANNELS 3 Zrotation Xrotation Yrotation
                  End Site
                  {
                    OFFSET 1.69225 -0.51767 -0.607171
                  }
                }
              }
            }
          }
        }
      }
    }
  }
  JOINT rButtock
  {
    OFFSET -8.77824 4.35084 1.2192
    CHANNELS 3 Zrotation Xrotation Yrotation
    JOINT rThigh
    {
      OFFSET 0 -1.70687 -2.19456
      CHANNELS 3 Zrotation Xrotation Yrotation
      JOINT rShin
      {
        OFFSET 0 -36.8199 0.73152
        CHANNELS 3 Zrotation Xrotation Yrotation
        JOINT rFoot
        {
          OFFSET 0.73152 -45.1104 -5.12064
          CHANNELS 3 Zrotation Xrotation Yrotation
          End Site
          {
            OFFSET -1.1221 -3.69964 12.103
          }
        }
      }
    }
  }
  JOINT lButtock
  {
    OFFSET 8.77824 4.35084 1.2192
    CHANNELS 3 Zrotation Xrotation Yrotation
    JOINT lThigh
    {
      OFFSET 0 -1.70687 -2.19456
      CHANNELS 3 Zrotation Xrotation Yrotation
      JOINT lShin
      {
        OFFSET 0 -36.8199 0.73152
        CHANNELS 3 Zrotation Xrotation Yrotation
        JOINT lFoot
        {
          OFFSET -0.73152 -45.1104 -5.12064
          CHANNELS 3 Zrotation Xrotation Yrotation
          End Site
          {
            OFFSET 1.1221 -3.69964 12.103
          }
        }
      }
    }
  }
}
MOTION
Frames:	4
Frame Time:	0.03333
29.976020846515894 71.77291512489319 44.66143799945712 -4.197690403030443 26.692445870754238 -14.61407594628709 -11.676855546560656 24.73069430526881 0.862747340882227 6.077985986247947 -9.043211442231902 0.5621273968172527 -5.886258307377458 17.195460565728784 -9.46435578381301 13.810865336687455 -23.00248569052633 -16.40741041476564 -0.43935818826128487 0.3078762196453196 0.27157557847570013 -0.08198372110301508 -0.14549935774225617 -0.21589052693625388 0.2250007052883683 0.633167820848585 -0.04687419422151574 65.4325428901835 13.235500446289334 -3.7738784456916217 -21.025905784352805 -53.33600466252411 113.76287266473452 0.13648420172892692 -18.258459981730795 -1.203436216187111 0.7466973042418329 0.0888779432964967 0.3021001207633102 0.2719731701905889 -0.12254986877016043 -0.14254402026575627 -0.3418553435490752 -0.2785675577516775 0.40407906057897897 8.107551511794671 5.550420040322047 0.32254714581738964 -0.042370651629350976 0.28823083468421756 0.24094487477126392 2.861689393120082 0.6403894652354041 0.33121257480087307 0.5332306807079269 0.1172440924455299 0.2960095130143629 9.837236301171517 1.0798969838435037 0.13654732761789665 -0.22447128558641297 -0.15945151322588813 -0.031383758740856554 3.0704351286378926 -0.7631284982290621 -0.043220609974620884 -0.12192485310025136 -0.07617800694765135 0.08084334631588741 -69.8286575456788 59.59119435725934 1.8477179287540704 28.581599355551603 -37.147418140840045 -80.50612835061965 2.746377230353461 -38.60313977373945 8.287806180406832 -0.061401586369416346 -0.035921085423007766 -0.3901700740253356 -0.07355740210133498 0.33319607774410065 0.33518939908426015 0.19752533553706642 0.12904826015689866 0.1802636865962988 -8.05259324841181 5.616396252609785 -0.2125716553092227 -0.1959199475974225 -0.18685695357947674 0.5013671545387299 -2.77601939757767 0.6831686475544865 -0.36979668694824536 0.1832367398759584 -0.22214272468796753 0.07051489967163808 -9.980688202988356 0.5847957274554672 -0.011043455392558585 -0.17195067936573213 -0.10293377891729537 -0.5536626046406383 -1.8378559893662183 -0.38221156962094843 0.7161870626627975 -0.23213486455687304 -0.21865180433100342 -0.2548929214692233 -96.28449371075276 -65.37501220680447 -87.84005763229918 -168.4078762515024 78.81075245521743 169.18624460931704 -7.918485045379549 36.43591391990523 21.416654076580063 -0.15189049381468403 -0.33072224192366023 -0.335521517032652 12.461204588767302 2.989629081558176 -0.11995690484564145 -1.5034076658069044 59.584746658682846 -3.353362481514154 25.25066294640354 -27.44605820792218 37.4100252540487
30.97083093598485 69.74860429763794 46.28533413633704 -3.8794957952616445 29.27240468820669 -12.699206799264628 -11.950423405839885 23.364905773170964 2.2293144078237472 6.523150395592698 -8.525036579527946 -0.17032306663085925 -6.222572553240655 17.04845611176989 -10.851778086333224 13.2588434715515 -23.353805008222402 -16.666759527740194 0.18902316408300213 0.520739065128767 -0.18813626668731862 0.15589896108383525 -0.3743707792580383 -0.23669177467203514 0.2488133060559715 0.47858228379780204 -0.1649464004131634 64.2917783553863 14.603593313458413 -5.162008526564578 -19.967631151709153 -52.96376618294759 113.26736976120677 -0.6415004915534419 -17.862737604240472 -2.1974532828929303 0.5482891667545423 -0.026955661724572665 0.3567860303530173 -0.044073129640829545 0.25209657265391133 0.18606705287413533 -0.30989240611094276 -0.7134319351063436 0.053920234711578086 7.69677368982635 5.728267921025424 -0.038309357115837925 -0.15714728487636087 -0.4254626219621435 0.15131699804824097 2.5601339799430805 0.31687349977293044 0.102755113441604 0.4069904287126969 0.5546131215131808 0.37458955875489025 10.477646790582961 1.187408216804324 0.426047883796649 0.07709181155340501 -0.10832349186352301 -0.6562712558812704 3.104134641672501 -0.4895781413095821 0.3170227233980394 0.15773692230080338 -0.03378056817014924 -0.1284594765061024 -75.3834864731101 59.84698494167632 7.643172926541029 28.511509661836225 -38.756590218727546 -80.69168409980139 4.271799236185551 -43.964677762753965 9.670429421261465 -0.1307503112815541 -0.1811966477482402 -0.6407022665550496 0.6334180832486425 0.5311187115113649 -0.05191242589985879 0.455672015052581 0.09069226565563424 0.6985325711230483 -8.330539258949017 5.1474738840107905 -0.4121864951237841 0.18572274197085792 -0.5248410739730357 -0.006262776540799231 -2.2723612481809297 0.4044149671479261 -0.034647842112182185 0.0163901594913563 -0.32528391724044914 0.16044639964760926 -9.604371246703687 1.2511781712684424 -0.5542044307408908 -0.10959702865903949 -0.38264688745883096 -0.5863493286873805 -2.380958054332959 -0.6014468215174591 0.8394133869650536 -0.6379708312172792 0.09062962001434052 -0.09638445459647295 -74.37436700437573 -66.14652305469244 -65.99847870443242 -24.037739170572458 86.2708353308671 22.927922222904595 -10.962043806520265 37.9408197450179 25.5724194978245 -0.24017522450959455 -0.096279200314146 -0.26583736579924316 12.214189943660145 4.515234008393976 -0.3720382696564789 0.392879044444039 56.625997502692535 -3.662258640501627 23.229056725673995 -26.40880348244924 36.95691391960464
30.659867078065872 70.98495364189148 47.59318856522441 -2.226166971276841 28.928118757808445 -11.634631317111637 -10.83836359480332 23.981050308008644 1.9215930413735167 6.2712952807981175 -7.669975442617805 0.20023390574937314 -5.346578594071717 16.159151821455893 -10.53632067687431 12.334245032475105 -23.2511267744296 -17.840332876215538 0.419559871095798 0.16285038611161573 -0.002929284040075996 0.18849689267136738 0.3669830758970232 -0.19289039851476483 0.5085007535182793 0.5455549566524216 0.12766247880732653 63.05724898366318 14.71325370813026 -3.6109818490814023 -20.905248785117237 -52.01443136001834 111.7056128565375 0.04566114862285751 -14.97330974568391 -2.715282153826743 0.20343355589083323 -0.06477063053837803 0.5367329135657039 0.15817154644759834 0.15804817615571498 0.009415309049156795 0.09962311152139613 -0.5778106317295126 -0.29555663945587934 7.5084081715748 5.444129917118778 0.02764092179739535 -0.17257497466412716 -0.31719905433641676 0.37241363657613874 3.2131542792228363 0.727838511613193 -0.19065038995169156 0.09771775554722703 0.15132300114419117 -0.01868014049316175 10.607468196137393 0.999524013445848 0.47345729404276526 -0.3061353751806126 -0.13077112201418148 -0.5333199534148131 2.6309615475322317 -0.6343386646827133 -0.35901477977613067 0.41430849616068954 0.14561861924846692 -0.3802224904685938 -84.04549139738523 62.16043831545134 14.25112481643449 28.010607493769584 -39.26765912337375 -82.61824823823021 3.7730904126161313 -47.41819216184166 10.690104947358085 0.3872138827751894 0.2621098434205616 -0.6001398541476065 0.04169360912787346 0.40361917006834025 0.08899309601703488 0.13037240972138198 -0.34372724226848184 0.06717773861227862 -8.598998136729076 5.328257038509981 -0.3415162353289547 -0.1755890891200862 -0.15507928502258084 -0.0919607331701261 -2.916886072793659 0.6171879529551055 -0.17329662683862132 -0.2235011319200067 0.06337540431784425 0.6428958244956815 -10.28550930036227 0.8068038760724442 -0.19375699210592343 0.015871892207655138 -0.1357207680066193 -0.6211704868497518 -1.923222895264211 -0.4573673427097722 0.40499724077466964 -0.26365298592530845 0.6184167466754731 0.02760215513777024 -56.831586196709914 -60.28354331266685 -46.81949534523878 -2.6951501712481307 69.73609482204678 3.616590715050452 -12.818285171028275 38.77710469189967 24.519115535349325 -0.43360212637953593 0.3145340532604953 -0.06426418268359216 12.965431351412446 6.152128116575259 0.4432391497724537 -0.0589746814190933 53.43910978314004 -3.4591313759063866 24.06038295521834 -26.20141503358556 37.279459357874735
30.164424795657396 71.51099443435669 48.928484972566366 -1.1549892575173875 30.284164025055265 -10.316203316718662 -11.443301496760302 23.531453105892556 1.8848713830745893 6.757708056314222 -8.023023651947533 0.243333680072623 -5.6088416365009275 16.76161719493333 -10.660551572593086 11.156023740269566 -23.15491160713892 -18.673293228518812 0.1416949690549855 0.07472429723234934 -0.19246276463969858 0.4213030367576057 0.6584638533265503 -0.6396359032708813 0.4654581820293283 0.35756883406492423 0.36098499586698846 62.66760035189229 14.311532717001375 -2.0475013888637665 -21.37928269653634 -53.00482245004853 111.02247099613116 -0.68196423974389 -14.534183223565451 -2.1901889498237987 0.052588187740866925 -0.006319685890407188 0.7500977779531472 0.6273116273263867 -0.031182054716929617 -0.39626740524174714 0.09794971517474302 -0.17208031955783015 -0.40043931680330264 7.250113469053367 5.118536933818386 -0.10953958570090262 -0.08434632622560481 -0.23187707827655796 0.5020361929122737 2.977937291802995 0.44602106447705875 -0.23505236918867342 -0.0008936342033609651 0.08526034427477003 -0.053118487896894946 10.553825597943405 1.0720424797414005 0.15350327223245328 -0.24064880207899972 -0.08995967450629748 0.15735757999760322 2.83763794917494 -0.5075251036840253 -0.33799764736976673 0.22086772046899655 -0.0020720552785997277 -0.5041914911213831 -89.5616751144926 63.10455487385469 19.821282395910583 28.100171764355963 -39.954800059539124 -84.52185611085861 3.525902878345608 -48.46120302923763 10.09321044692244 0.4298844223977863 0.5113514503622605 -0.12306581485676084 -0.14039272412061382 0.32906381329624296 0.07355558783233669 -0.28211658807743967 -0.6139458008943179 0.15116110431652072 -8.136596891240151 5.379776301645741 -0.4804751533323947 -0.44089108548227673 0.046558571446773715 -0.13741254716709328 -3.009711331821894 0.534486101493887 -0.5087916768882396 -0.34340969183292913 0.28629890500530886 0.6433668941050008 -10.224361178044084 0.5691040081675975 0.31722728222759594 -0.03524753805739459 0.13530503360174767 -0.44417552601898014 -1.6067172652111092 -0.752605844760717 0.19883342348482963 -0.011871188942599505 0.4052616171203168 0.018040957516810202 -45.74563592845645 -54.4507803275294 -33.02710310893527 -0.07996556028583499 57.967180278305406 1.008862055980019 -11.610847744648007 38.78852476819194 21.00320906574085 -0.3859023263719883 -0.044261760255798255 -0.3996617958158319 13.222641761403139 8.006778900780304 -0.9115869287075206 -1.94877890181746 50.79007897015854 -2.094508244835675 25.202540848606215 -26.154010105651086 37.625708967659364
